<svg width="48" height="48" viewBox="0 0 48 48" fill="none" xmlns="http://www.w3.org/2000/svg">
<path fill-rule="evenodd" clip-rule="evenodd" d="M23.1586 0L24.8414 0C30.156 0 34.1237 0.954778 37.4761 2.74765C40.8285 4.54052 43.4595 7.17149 45.2523 10.5239C47.0452 13.8763 48 17.844 48 23.1586V24.8414C48 30.156 47.0452 34.1237 45.2523 37.4761C43.4595 40.8285 40.8285 43.4595 37.4761 45.2523C34.1237 47.0452 30.156 48 24.8414 48H23.1586C17.844 48 13.8763 47.0452 10.5239 45.2523C7.17149 43.4595 4.54052 40.8285 2.74765 37.4761C0.954778 34.1237 0 30.156 0 24.8414L0 23.1586C0 17.844 0.954778 13.8763 2.74765 10.5239C4.54052 7.17149 7.17149 4.54052 10.5239 2.74765C13.8763 0.954778 17.844 0 23.1586 0Z" fill="#FFC800"/>
<path fill-rule="evenodd" clip-rule="evenodd" d="M25.0895 34.9467C24.7311 34.982 24.3677 35 24 35C17.9249 35 13 30.0751 13 24C13 17.9249 17.9249 13 24 13C30.0751 13 35 17.9249 35 24C35 26.2624 34.317 28.3652 33.146 30.1136C32.2868 29.4172 31.1921 29 30 29C27.2386 29 25 31.2386 25 34C25 34.3237 25.0308 34.6402 25.0895 34.9467ZM26.6847 37.7429C25.8158 37.9116 24.9182 38 24 38C16.268 38 10 31.732 10 24C10 16.268 16.268 10 24 10C31.732 10 38 16.268 38 24C38 27.3488 36.8242 30.423 34.8629 32.8323C34.9525 33.2069 35 33.5979 35 34C35 36.7614 32.7614 39 30 39C28.7281 39 27.5671 38.5251 26.6847 37.7429Z" fill="white"/>
</svg>
