<svg width="130" height="40" viewBox="0 0 130 40" fill="none" xmlns="http://www.w3.org/2000/svg">
<path d="M54.583 29.0157L56.988 27.1746L55.1635 24.8691C55.7606 24.2389 56.2223 23.5063 56.5485 22.6715C56.8747 21.8366 57.0378 20.9437 57.0378 19.9928C57.0378 18.6438 56.7226 17.4302 56.0923 16.3521C55.4621 15.274 54.5913 14.4281 53.48 13.8144C52.3687 13.2007 51.122 12.8939 49.7398 12.8939C48.3576 12.8939 47.1109 13.2007 45.9996 13.8144C44.8884 14.4281 44.0176 15.274 43.3873 16.3521C42.757 17.4302 42.4419 18.6438 42.4419 19.9928C42.4419 21.3418 42.757 22.5554 43.3873 23.6335C44.0176 24.7116 44.8884 25.5575 45.9996 26.1712C47.1109 26.7848 48.3576 27.0917 49.7398 27.0917C50.7903 27.0917 51.7523 26.9148 52.6258 26.5609L54.583 29.0157ZM49.7398 24.3716C48.9326 24.3716 48.2028 24.1836 47.5504 23.8076C46.8981 23.4317 46.3866 22.9092 46.0162 22.2402C45.6458 21.5713 45.4606 20.8221 45.4606 19.9928C45.4606 19.1524 45.6458 18.4005 46.0162 17.7371C46.3866 17.0736 46.8981 16.5539 47.5504 16.178C48.2028 15.802 48.9326 15.614 49.7398 15.614C50.547 15.614 51.2768 15.802 51.9292 16.178C52.5816 16.5539 53.093 17.0736 53.4634 17.7371C53.8339 18.4005 54.0191 19.1524 54.0191 19.9928C54.0191 20.9327 53.7813 21.7731 53.3059 22.5139L51.4482 20.1752L49.0266 22.0329L50.7848 24.2555C50.4751 24.3329 50.1268 24.3716 49.7398 24.3716ZM62.3951 26.9922C63.6004 26.9922 64.5071 26.5831 65.1152 25.7648V26.76H68.0676V17.0405H65.1152V22.0329C65.1152 22.7848 64.9494 23.3764 64.6177 23.8076C64.2859 24.2389 63.8326 24.4545 63.2576 24.4545C62.7047 24.4545 62.2818 24.2582 61.9887 23.8657C61.6957 23.4731 61.5492 22.9064 61.5492 22.1656V17.0405H58.5969V22.6632C58.5969 23.5478 58.7544 24.3163 59.0696 24.9687C59.3847 25.6211 59.8298 26.1214 60.4048 26.4697C60.9797 26.818 61.6432 26.9922 62.3951 26.9922ZM76.029 26.9922C76.9467 26.9922 77.765 26.7738 78.4837 26.337C79.2025 25.9003 79.7609 25.2949 80.1589 24.5208C80.557 23.7468 80.756 22.8733 80.756 21.9002C80.756 20.9272 80.557 20.0536 80.1589 19.2796C79.7609 18.5056 79.2025 17.9002 78.4837 17.4634C77.765 17.0266 76.9467 16.8082 76.029 16.8082C74.7795 16.8082 73.8506 17.2174 73.2425 18.0356V12.8276H70.2901V26.76H73.2425V25.7648C73.8506 26.5831 74.7795 26.9922 76.029 26.9922ZM75.5645 24.4711C74.8458 24.4711 74.2708 24.2306 73.8396 23.7496C73.4083 23.2686 73.1927 22.6521 73.1927 21.9002C73.1927 21.1483 73.4083 20.5319 73.8396 20.0509C74.2708 19.5699 74.8458 19.3293 75.5645 19.3293C76.2612 19.3293 76.8196 19.5699 77.2398 20.0509C77.6599 20.5319 77.87 21.1483 77.87 21.9002C77.87 22.6521 77.6599 23.2686 77.2398 23.7496C76.8196 24.2306 76.2612 24.4711 75.5645 24.4711ZM83.9572 15.9624C84.4769 15.9624 84.9081 15.791 85.2509 15.4482C85.5937 15.1054 85.7651 14.6742 85.7651 14.1545C85.7651 13.6348 85.5937 13.2035 85.2509 12.8607C84.9081 12.5179 84.4769 12.3466 83.9572 12.3466C83.4375 12.3466 83.0062 12.5179 82.6634 12.8607C82.3207 13.2035 82.1493 13.6348 82.1493 14.1545C82.1493 14.6742 82.3207 15.1054 82.6634 15.4482C83.0062 15.791 83.4375 15.9624 83.9572 15.9624ZM85.4333 26.7931V17.0405H82.481V26.7931H85.4333ZM91.6863 26.76V19.5781H93.6103V17.0405H91.6863V14.1545H88.734V17.0405H86.81V19.5781H88.734V26.76H91.6863Z" fill="#33383B"/>
<path fill-rule="evenodd" clip-rule="evenodd" d="M20.5443 7L21.4557 7C24.3345 7 26.4837 7.51717 28.2996 8.48831C30.1154 9.45945 31.5406 10.8846 32.5117 12.7004C33.4828 14.5163 34 16.6655 34 19.5443V20.4557C34 23.3345 33.4828 25.4837 32.5117 27.2996C31.5406 29.1154 30.1154 30.5406 28.2996 31.5117C26.4837 32.4828 24.3345 33 21.4557 33H20.5443C17.6655 33 15.5163 32.4828 13.7004 31.5117C11.8846 30.5406 10.4595 29.1154 9.48831 27.2996C8.51717 25.4837 8 23.3345 8 20.4557V19.5443C8 16.6655 8.51717 14.5163 9.48831 12.7004C10.4595 10.8846 11.8846 9.45945 13.7004 8.48831C15.5163 7.51717 17.6655 7 20.5443 7Z" fill="#FFC800"/>
<path fill-rule="evenodd" clip-rule="evenodd" d="M21.5791 25.8678C21.3886 25.8864 21.1955 25.8959 21.0001 25.8959C17.7439 25.8959 15.1042 23.2562 15.1042 20C15.1042 16.7438 17.7439 14.1042 21.0001 14.1042C24.2563 14.1042 26.8959 16.7438 26.8959 20C26.8959 21.2108 26.5309 22.3364 25.905 23.2726C25.4473 22.9188 24.8733 22.7083 24.25 22.7083C22.7542 22.7083 21.5417 23.9209 21.5417 25.4167C21.5417 25.5704 21.5545 25.7211 21.5791 25.8678ZM22.4542 27.4441C21.9836 27.5355 21.4974 27.5834 21.0001 27.5834C16.8119 27.5834 13.4167 24.1882 13.4167 20C13.4167 15.8119 16.8119 12.4167 21.0001 12.4167C25.1882 12.4167 28.5834 15.8119 28.5834 20C28.5834 21.814 27.9465 23.4792 26.8841 24.7842C26.9327 24.9871 26.9584 25.1989 26.9584 25.4167C26.9584 26.9124 25.7458 28.125 24.25 28.125C23.5611 28.125 22.9322 27.8678 22.4542 27.4441Z" fill="white"/>
</svg>
